<svg width="26" height="30" viewBox="0 0 26 30" fill="none" xmlns="http://www.w3.org/2000/svg">
<g clip-path="url(#clip0_2_69)">
<path d="M13.0058 8.26172C9.31472 8.26172 6.33749 11.2676 6.33749 14.9941C6.33749 18.7207 9.31472 21.7266 13.0058 21.7266C16.6969 21.7266 19.6741 18.7207 19.6741 14.9941C19.6741 11.2676 16.6969 8.26172 13.0058 8.26172ZM13.0058 19.3711C10.6205 19.3711 8.67052 17.4082 8.67052 14.9941C8.67052 12.5801 10.6147 10.6172 13.0058 10.6172C15.3969 10.6172 17.3411 12.5801 17.3411 14.9941C17.3411 17.4082 15.3911 19.3711 13.0058 19.3711ZM21.5022 7.98633C21.5022 8.85938 20.8058 9.55664 19.9469 9.55664C19.0821 9.55664 18.3915 8.85352 18.3915 7.98633C18.3915 7.11914 19.0879 6.41602 19.9469 6.41602C20.8058 6.41602 21.5022 7.11914 21.5022 7.98633ZM25.9187 9.58008C25.8201 7.47656 25.3442 5.61328 23.8178 4.07812C22.2973 2.54297 20.4518 2.0625 18.3683 1.95703C16.221 1.83398 9.78481 1.83398 7.63749 1.95703C5.55981 2.05664 3.71427 2.53711 2.18794 4.07227C0.661596 5.60742 0.191507 7.4707 0.0870422 9.57422C-0.0348328 11.7422 -0.0348328 18.2402 0.0870422 20.4082C0.185703 22.5117 0.661596 24.375 2.18794 25.9102C3.71427 27.4453 5.55401 27.9258 7.63749 28.0312C9.78481 28.1543 16.221 28.1543 18.3683 28.0312C20.4518 27.9316 22.2973 27.4512 23.8178 25.9102C25.3384 24.375 25.8143 22.5117 25.9187 20.4082C26.0406 18.2402 26.0406 11.748 25.9187 9.58008ZM23.1446 22.7344C22.692 23.8828 21.8156 24.7676 20.6723 25.2305C18.9603 25.916 14.8978 25.7578 13.0058 25.7578C11.1138 25.7578 7.04552 25.9102 5.33927 25.2305C4.20177 24.7734 3.32544 23.8887 2.86695 22.7344C2.18794 21.0059 2.34463 16.9043 2.34463 14.9941C2.34463 13.084 2.19374 8.97656 2.86695 7.25391C3.31963 6.10547 4.19597 5.2207 5.33927 4.75781C7.05133 4.07227 11.1138 4.23047 13.0058 4.23047C14.8978 4.23047 18.9661 4.07812 20.6723 4.75781C21.8098 5.21484 22.6861 6.09961 23.1446 7.25391C23.8237 8.98242 23.667 13.084 23.667 14.9941C23.667 16.9043 23.8237 21.0117 23.1446 22.7344Z" fill="#6B7280"/>
</g>
<defs>
<clipPath id="clip0_2_69">
<rect width="26" height="30" fill="white"/>
</clipPath>
</defs>
</svg>
