<svg width="27" height="31" viewBox="0 0 27 31" fill="none" xmlns="http://www.w3.org/2000/svg">
<g clip-path="url(#clip0_2_67)">
<path d="M24.1071 1.9375H2.89286C2.12562 1.9375 1.38981 2.24369 0.847298 2.78872C0.304782 3.33375 0 4.07296 0 4.84375L0 26.1562C0 26.927 0.304782 27.6663 0.847298 28.2113C1.38981 28.7563 2.12562 29.0625 2.89286 29.0625H11.1646V19.8406H7.36775V15.5H11.1646V12.1917C11.1646 8.42873 13.3945 6.35016 16.8099 6.35016C18.4456 6.35016 20.156 6.6432 20.156 6.6432V10.3366H18.2714C16.4146 10.3366 15.8354 11.4942 15.8354 12.6815V15.5H19.9806L19.3177 19.8406H15.8354V29.0625H24.1071C24.8744 29.0625 25.6102 28.7563 26.1527 28.2113C26.6952 27.6663 27 26.927 27 26.1562V4.84375C27 4.07296 26.6952 3.33375 26.1527 2.78872C25.6102 2.24369 24.8744 1.9375 24.1071 1.9375Z" fill="#6B7280"/>
</g>
<defs>
<clipPath id="clip0_2_67">
<rect width="27" height="31" fill="white"/>
</clipPath>
</defs>
</svg>
